{"title":"Batman v Superman: Dawn of Justice *2016* (Theatrical Cut)[mini-","uid":15386991,"size":4248902361,"categoryP":"video","categoryS":"3d","magnet":"?xt=urn:btih:ce9cfc62c3e540f8651d62a8e34a0161586a27ad&amp;dn=Batman+v+Superman%3A+Dawn+of+Justice+%2A2016%2A+%28Theatrical+Cut%29%5Bmini-&amp;tr=udp%3A%2F%2Ftracker.leechers-paradise.org%3A6969&amp;tr=udp%3A%2F%2Fzer0day.ch%3A1337&amp;tr=udp%3A%2F%2Fopen.demonii.com%3A1337&amp;tr=udp%3A%2F%2Ftracker.coppersurfer.tk%3A6969&amp;tr=udp%3A%2F%2Fexodus.desync.com%3A6969","seeders":18,"leechers":5,"uploader":"Leon345","files":3,"time":1469300647,"description":"Batman v Superman: Świt sprawiedliwości - Batman v Superman: Dawn of Justice *2016* PL TC.3D.Half.Over-Under.1080p.BDRip.AC3 5.1 - Leon 345\r\n ================================================\r\n Film w wersji 3D Over-Under.\r\n Do odtworzenia filmu WYMAGANY odpowiedni sprzęt (TV 3D).\r\n ================================================\r\n\r\n Kopia mini-HD 1080p = 3,95 GB\r\n\r\n Kopie 3D SBS (OU) mini-HD, to kopie specjalistyczne o dużej rozdzielczości (1920 x 1080), które mimo niewielkiego ciężaru (w MB) zachowują wysoką jakość.\r\n\r\n Szczególnie polecam tym, którzy chcą zaoszczędzić czas i przestrzeń na dysku.\r\n\r\n Taką kopię można także bez problemu nagrać na zwykłą płytę DVD lub przenieś na zewnętrzną pamięć.\r\n\r\n Ważne jest również to, że tą wersję mogą obejrzeć osoby, których sprzęt ma ograniczenia w postaci obsługi tylko formatu FAT, jak wiadomo taki format obsłuży filmy, które mają maksymalnie 4GB, więc w tym przypadku ta wersja jest też dla nich.\r\n ------------------------------------------------------------\r\n\r\n[img]http://i1365.photobucket.com/albums/r749/leon3456/BATMAN_v_SUPERMAN_BD3D_zpskstgek92.jpg[/img]\r\n\r\n gatunek: Akcja,Sci-Fi\r\n produkcja: USA\r\n premiera: 1 kwietnia 2016 (Polska) 19 marca 2016 (świat)\r\n reżyseria: Zack Snyder\r\n scenariusz: Chris Terrio,David S. Goyer\r\n \nhttp://imdb.com/title/tt2975590/\r\n\r\n W obawie przed poczynaniami nieposkromionego superbohatera o boskich rysach i zdolnościach, najznamienitszy obywatel Gotham City, a zarazem zaciekły strażnik porządku, staje do walki z otaczanym czcią współczesnym wybawcą Metropolis, podczas gdy świat usiłuje ustalić, jakiego bohatera naprawdę potrzebuje. Wobec konfliktu, który rozgorzał między Batmanem i Supermanem, na horyzoncie szybko pojawia się nowy wróg, stawiając ludzkość w obliczu śmiertelnego niebezpieczeństwa, z jakim jeszcze nigdy nie musiała się mierzyć.\r\n\r\n OBSADA:\r\n\r\n Ben Affleck - Bruce Wayne / Batman (Jacek Rozenek polski dubbing) \r\n Henry Cavill - Clark Kent / Superman (Grzegorz Kwiecień polski dubbing) \r\n Jesse Eisenberg - Lex Luthor (Krzysztof Szczepaniak polski dubbing) \r\n Amy Adams - Lois Lane (Bożena Furczyk polski dubbing) \r\n Gal Gadot - Diana Prince / Wonder Woman (Anna Sroka polski dubbing) \r\n Jeremy Irons - Alfred Pennyworth (Andrzej Chudy polski dubbing) \r\n Holly Hunter - Senator June Finch (Ewa Serwa polski dubbing)\r\n\r\n General\r\n\r\n Format : Matroska\r\n Format version : Version 2\r\n File size : 3.96 GiB\r\n Duration : 2h 31mn\r\n Overall bit rate : 3 735 Kbps\r\n Movie name : Batman.v.Superman.2016.THEATRICAL.1080p.3D.HOU.BDRip.Leon345\r\n Encoded date : UTC 2016-07-23 11:00:18\r\n Writing application : mkvmerge v5.7.0 ('The Whirlwind') built on Jul 8 2012 20:08:51\r\n Writing library : libebml v1.2.3 + libmatroska v1.3.0\r\n\r\n Video\r\n ID : 1\r\n Format : AVC\r\n Format/INFO : Advanced Video Codec\r\n Format profile :   \r\n Format settings, CABAC : Yes\r\n Format settings, ReFrames : 4 frames\r\n Codec ID : V_MPEG4/ISO/AVC\r\n Duration : 2h 31mn\r\n Bit rate : 3 200 Kbps\r\n Width : 1 920 pixels\r\n Height : 1 080 pixels\r\n Display aspect ratio : 16:9\r\n Frame rate mode : Constant\r\n Frame rate : 23.976 (24000/1001) fps\r\n Color space : YUV\r\n Chroma subsampling : 4:2:0\r\n Bit depth : 8 bits\r\n Scan type : Progressive\r\n Stream size : 3.34 GiB (84%)\r\n Writing library : x264 \r\n Encoding settings : cabac=1 / ref=4 / deblock=1:-1:-1 / rc=2pass\r\n Default : Yes\r\n Forced : No\r\n\r\n Audio #1\r\n ID : 2\r\n Format : AC-3\r\n Format/INFO : Audio Coding 3\r\n Mode extension : CM (complete main)\r\n Format settings, Endianness : Big\r\n Codec ID : A_AC3\r\n Duration : 2h 31mn\r\n Bit rate mode : Constant\r\n Bit rate : 384 Kbps\r\n Channel(s) : 6 channels\r\n Channel positions : Front: L C R, Side: L R, LFE\r\n Sampling rate : 48.0 KHz\r\n Compression mode : Lossy\r\n Stream size : 417 MiB (10%)\r\n Title : AC3 5.1 Dubbing PL\r\n Language : Polish\r\n Default : Yes\r\n Forced : No\r\n\r\n Audio #2\r\n ID : 3\r\n Format : AC-3\r\n Format/INFO : Audio Coding 3\r\n Mode extension : CM (complete main)\r\n Format settings, Endianness : Big\r\n Codec ID : A_AC3\r\n Duration : 2h 31mn\r\n Bit rate mode : Constant\r\n Bit rate : 128 Kbps\r\n Channel(s) : 2 channels\r\n Channel positions : Front: L R\r\n Sampling rate : 48.0 KHz\r\n Compression mode : Lossy\r\n Stream size : 139 MiB (3%)\r\n Title : AC3 2.0 ENG\r\n Language : English\r\n Default : No\r\n Forced : No\r\n\r\n Text #1\r\n ID : 4\r\n Format : UTF-8\r\n Codec ID : S_TEXT/UTF8\r\n Codec ID/INFO : UTF-8 Plain Text\r\n Title : Napisy 2D\r\n Language : Polish\r\n Default : No\r\n Forced : No\r\n\r\n Text #2\r\n ID : 5\r\n Format : PGS\r\n Muxing mode : zlib\r\n Codec ID : S_HDMV/PGS\r\n Codec ID/INFO : Picture based subtitle format used on BDs/HD-DVDs\r\n Title : Napisy 3D\r\n Language : Polish\r\n Default : No\r\n Forced : No\r\n\r\n Text #3\r\n ID : 6\r\n Format : UTF-8\r\n Codec ID : S_TEXT/UTF8\r\n Codec ID/INFO : UTF-8 Plain Text\r\n Title : napisy 2D\r\n Language : English\r\n Default : No\r\n Forced : No\r\n\r\n Text #4\r\n ID : 7\r\n Format : PGS\r\n Muxing mode : zlib\r\n Codec ID : S_HDMV/PGS\r\n Codec ID/INFO : Picture based subtitle format used on BDs/HD-DVDs\r\n Title : napisy 3D\r\n Language : English\r\n Default : No\r\n Forced : No\r\n\r\n A/V-BD3D REMUX HD CLUB\r\n Dubbing PL - BD CEE","torrent":{"xt":"urn:btih:ce9cfc62c3e540f8651d62a8e34a0161586a27ad","amp;dn":"Batman+v+Superman%3A+Dawn+of+Justice+%2A2016%2A+%28Theatrical+Cut%29%5Bmini-","amp;tr":["udp%3A%2F%2Ftracker.leechers-paradise.org%3A6969","udp%3A%2F%2Fzer0day.ch%3A1337","udp%3A%2F%2Fopen.demonii.com%3A1337","udp%3A%2F%2Ftracker.coppersurfer.tk%3A6969","udp%3A%2F%2Fexodus.desync.com%3A6969"],"infoHash":"ce9cfc62c3e540f8651d62a8e34a0161586a27ad","infoHashBuffer":{"type":"Buffer","data":[206,156,252,98,195,229,64,248,101,29,98,168,227,74,1,97,88,106,39,173]},"announce":[],"urlList":[]}}